<?xml version="1.0" standalone="no"?>
<svg xmlns="http://www.w3.org/2000/svg" viewBox="0 0 54.708 63.171" width="54.708" height="63.171"><polygon fill="#45a29b" points="54.708,15.79275 54.708,47.37825 27.354,63.171 0,47.37825 0,15.79275 27.354,0"></polygon><path fill="white" fill-rule="nonzero" d="M3.57 16.17L3.57 16.17Q1.68 16.17 0 15.87L0 15.87L0 0.19Q1.55 0 3.59 0Q5.64 0 7.29 0.56Q8.95 1.11 10.07 2.14L10.07 2.14Q12.32 4.21 12.32 7.92L12.32 7.92Q12.32 12.08 9.81 14.24L9.81 14.24Q7.56 16.17 3.57 16.17ZM3.05 2.87L3.05 13.31Q3.81 13.45 4.57 13.45Q5.33 13.45 6.21 13.15Q7.09 12.86 7.73 12.22L7.73 12.22Q9.12 10.89 9.12 8.33L9.12 8.33Q9.12 4.14 6.06 3.18L6.06 3.18Q5.05 2.86 3.73 2.86L3.73 2.86L3.41 2.86Q3.23 2.86 3.05 2.87L3.05 2.87ZM18.93 6L18.93 15.95Q18.36 15.88 16.76 15.88L16.76 15.88L15.82 15.88L15.82 0.25Q16.57 0.29 17.47 0.29Q18.38 0.29 18.75 0.20L18.75 0.20L22.69 6.89L26.47 0.20Q26.85 0.29 27.90 0.29Q28.96 0.29 29.71 0.25L29.71 0.25L29.71 15.88L28.77 15.88Q27.16 15.88 26.60 15.95L26.60 15.95L26.60 5.45L22.77 12.30L18.93 6Z" transform="translate(12.501, 23.5)"></path></svg>