<?xml version="1.0" standalone="no"?>
<!DOCTYPE svg PUBLIC "-//W3C//DTD SVG 20010904//EN"
 "http://www.w3.org/TR/2001/REC-SVG-20010904/DTD/svg10.dtd">
<svg version="1.0" xmlns="http://www.w3.org/2000/svg"
 width="505.000000pt" height="505.000000pt" viewBox="0 0 505.000000 505.000000"
 preserveAspectRatio="xMidYMid meet">

<g transform="translate(0.000000,505.000000) scale(0.100000,-0.100000)"
fill="#000000" stroke="none">
<path d="M2350 5044 c-476 -45 -863 -179 -1235 -427 -145 -97 -221 -161 -375
-316 -393 -394 -626 -858 -711 -1413 -29 -189 -32 -513 -5 -693 86 -586 335
-1080 747 -1480 390 -378 849 -603 1415 -692 137 -21 516 -24 649 -4 570 84
1041 309 1431 684 421 404 674 900 760 1492 27 180 24 504 -5 693 -41 269
-117 514 -233 750 -191 389 -500 744 -853 979 -416 277 -863 417 -1360 427
-99 2 -200 2 -225 0z m758 -763 c8 -4 12 -19 10 -32 l-3 -24 -554 -3 c-544 -2
-581 0 -581 29 0 4 7 15 16 23 14 14 78 16 557 16 298 0 548 -4 555 -9z m150
-153 c16 -16 15 -23 -4 -42 -14 -14 -91 -16 -695 -16 -450 0 -687 4 -700 10
-19 10 -26 40 -12 53 3 4 320 7 703 7 528 0 699 -3 708 -12z m140 -140 c9 -9
12 -156 12 -600 0 -570 -1 -588 -19 -598 -26 -13 -1629 -14 -1665 0 l-26 10 0
593 c0 327 3 597 7 600 3 4 383 7 843 7 637 0 839 -3 848 -12z m-2295 -1563
c86 -18 179 -68 223 -119 90 -105 77 -259 -35 -424 -74 -109 -232 -231 -377
-292 -144 -60 -208 -74 -336 -75 -111 0 -118 1 -143 25 -23 21 -26 31 -22 64
7 49 48 128 144 275 100 154 272 400 295 423 20 20 102 26 113 8 8 -12 20 7
-223 -365 -106 -163 -195 -302 -199 -310 -4 -12 6 -15 54 -15 107 0 269 59
390 141 67 46 188 164 222 218 98 154 37 298 -146 346 -118 31 -252 14 -375
-48 -83 -43 -104 -62 -71 -69 29 -6 -55 -58 -94 -58 -41 0 -69 36 -58 77 9 40
92 115 159 147 126 60 334 82 479 51z m3342 -96 c4 -6 -7 -33 -24 -60 -17 -28
-31 -52 -31 -54 0 -3 22 -4 50 -4 41 1 53 -3 70 -22 40 -49 20 -63 -109 -75
-76 -6 -84 -9 -105 -38 -43 -57 -206 -360 -223 -414 -15 -48 -15 -54 -1 -68
14 -15 20 -14 59 4 24 11 71 43 104 71 33 29 70 54 83 58 21 5 22 7 7 23 -45
49 -17 136 62 196 76 58 211 97 277 80 49 -12 28 -95 -31 -125 -36 -18 -73
-14 -73 9 0 28 -9 26 -78 -20 -100 -67 -108 -93 -21 -71 47 12 53 12 70 -6 28
-28 16 -46 -54 -81 -86 -43 -147 -90 -147 -112 0 -11 10 -26 22 -34 51 -36
141 -8 254 78 34 25 67 46 73 46 6 0 11 -18 11 -44 0 -39 -5 -48 -37 -75 -56
-46 -146 -90 -208 -102 -72 -13 -153 2 -190 37 -14 13 -28 24 -31 24 -2 0 -22
-12 -44 -26 -78 -52 -161 -49 -202 6 -19 26 -23 28 -38 15 -8 -8 -42 -26 -74
-41 -74 -34 -125 -29 -169 14 l-30 30 -45 -29 c-76 -48 -177 -37 -208 22 -31
62 -3 145 99 293 48 69 62 96 50 96 -22 0 -265 -247 -336 -342 -31 -42 -66
-79 -76 -83 -23 -7 -71 10 -71 26 0 6 45 90 100 187 55 97 100 182 100 189 0
69 -201 -125 -325 -313 -30 -46 -61 -85 -68 -85 -57 -5 -88 -9 -125 -15 -23
-3 -53 -3 -67 0 -32 8 -55 53 -55 107 l0 42 -50 -49 c-103 -101 -189 -128
-249 -78 l-30 25 -44 -25 c-84 -49 -185 -23 -202 52 -9 45 29 149 94 252 33
52 58 96 56 98 -14 14 -211 -180 -323 -318 l-69 -85 -47 2 -46 3 -114 -111
c-76 -73 -128 -133 -155 -179 -48 -80 -91 -120 -131 -120 -45 0 -63 25 -58 82
6 57 53 133 139 223 33 35 72 91 94 135 l38 75 -45 -41 c-102 -94 -173 -120
-219 -78 -18 16 -20 27 -17 74 3 49 17 78 108 239 58 101 111 185 118 188 16
7 52 -25 52 -45 0 -8 -39 -88 -86 -179 -47 -90 -84 -167 -81 -170 14 -13 57
17 151 108 56 54 122 126 147 160 76 107 98 129 130 129 57 0 54 -27 -18 -146
-94 -155 -214 -376 -208 -382 2 -3 57 42 121 99 113 101 120 110 211 262 96
161 129 197 181 197 35 0 36 -24 4 -85 -17 -30 -29 -55 -27 -55 2 0 19 14 37
31 77 72 167 117 207 104 10 -3 26 -14 36 -25 24 -27 9 -65 -71 -185 -116
-174 -138 -237 -84 -243 39 -5 117 52 126 91 21 99 137 235 253 296 76 40 156
48 188 18 18 -16 21 -16 33 -2 9 11 26 15 49 13 48 -4 51 -30 10 -99 -75 -127
-126 -268 -108 -300 12 -23 13 -23 47 -5 44 23 76 65 131 171 86 165 140 242
184 260 20 8 44 15 52 15 26 0 16 -45 -20 -94 -41 -52 -36 -60 10 -17 46 45
145 101 179 101 63 0 84 -60 47 -134 -20 -37 -19 -37 42 21 78 74 129 109 188
124 54 15 94 6 110 -22 15 -28 9 -40 -102 -215 -94 -149 -111 -191 -86 -213
38 -31 151 66 225 192 47 80 52 94 41 113 -17 32 -8 47 58 98 65 52 95 57 118
22 15 -23 14 -28 -14 -83 -16 -33 -61 -114 -100 -181 -39 -67 -71 -131 -71
-142 0 -50 68 -31 143 39 33 30 63 74 96 140 26 53 76 143 109 199 34 57 62
105 62 107 0 1 -29 0 -66 -3 -61 -4 -77 -1 -134 28 -22 12 -16 68 12 97 43 46
108 54 108 13 0 -28 12 -31 89 -24 l71 7 46 63 c42 60 48 64 84 64 21 0 42 -5
45 -11z m-1717 -1417 c2 -7 -3 -12 -12 -12 -9 0 -16 7 -16 16 0 17 22 14 28
-4z m-704 -72 c26 -44 50 -80 54 -80 4 0 27 36 52 80 25 44 51 80 58 80 9 0
12 -32 12 -125 0 -77 -4 -125 -10 -125 -6 0 -10 38 -10 95 0 52 -3 95 -7 95
-5 0 -26 -32 -47 -70 -22 -39 -45 -69 -50 -67 -6 2 -28 34 -50 71 -21 37 -41
65 -43 62 -3 -3 -5 -46 -4 -96 2 -75 -1 -90 -14 -90 -13 0 -15 19 -15 125 0
153 9 159 74 45z m387 -8 c26 -24 32 -36 32 -72 0 -56 -35 -90 -92 -90 -91 0
-122 131 -42 175 39 21 67 18 102 -13z m220 -30 c-11 -26 -27 -66 -36 -89 -9
-24 -23 -43 -30 -43 -7 0 -27 35 -45 78 -46 109 -45 105 -30 100 8 -2 26 -33
40 -69 15 -35 30 -64 35 -64 8 0 47 85 59 129 2 10 9 15 15 12 7 -5 4 -23 -8
-54z m97 -43 c-2 -64 -6 -89 -15 -89 -10 0 -13 24 -13 88 0 49 3 92 6 95 18
17 25 -13 22 -94z m191 86 c23 -11 51 -57 51 -81 0 -2 -35 -4 -77 -6 -69 -3
-78 -5 -78 -22 0 -10 12 -28 27 -39 27 -20 29 -20 63 -4 46 22 52 21 30 -3
-24 -27 -84 -27 -118 0 -50 39 -43 125 12 155 34 18 55 18 90 0z m205 2 c16
-12 12 -13 -30 -13 -45 1 -49 -1 -49 -23 0 -20 8 -27 50 -41 43 -14 50 -21 53
-45 3 -19 -2 -33 -14 -42 -24 -18 -86 -16 -110 3 -18 15 -17 15 11 8 102 -25
135 34 35 63 -63 18 -76 47 -40 83 23 23 68 26 94 7z"/>
<path d="M1770 3395 l0 -535 785 0 785 0 -2 533 -3 532 -782 3 -783 2 0 -535z
m821 123 c154 -78 205 -108 207 -123 2 -17 -30 -37 -201 -122 -112 -57 -210
-103 -218 -103 -35 0 -39 20 -39 225 0 201 4 225 36 225 6 0 103 -46 215 -102z"/>
<path d="M2644 1900 c-32 -16 -82 -53 -111 -82 -87 -89 -152 -218 -110 -218
37 0 185 135 257 235 33 46 60 86 60 89 0 14 -41 4 -96 -24z"/>
<path d="M2312 820 c-28 -26 -30 -90 -4 -113 68 -62 152 44 87 108 -29 30 -54
32 -83 5z"/>
<path d="M2832 824 c-12 -8 -22 -24 -22 -35 0 -17 7 -19 65 -19 72 0 83 12 45
50 -24 24 -57 26 -88 4z"/>
</g>
</svg>
